<svg id="visual" viewBox="0 0 960 540" width="960" height="540" xmlns="http://www.w3.org/2000/svg" xmlns:xlink="http://www.w3.org/1999/xlink" version="1.1"><rect x="0" y="0" width="960" height="540" fill="#001220"></rect><path d="M0 337L22.8 344C45.7 351 91.3 365 137 371.8C182.7 378.7 228.3 378.3 274 374.8C319.7 371.3 365.3 364.7 411.2 356C457 347.3 503 336.7 548.8 335.7C594.7 334.7 640.3 343.3 686 354.7C731.7 366 777.3 380 823 385.8C868.7 391.7 914.3 389.3 937.2 388.2L960 387L960 541L937.2 541C914.3 541 868.7 541 823 541C777.3 541 731.7 541 686 541C640.3 541 594.7 541 548.8 541C503 541 457 541 411.2 541C365.3 541 319.7 541 274 541C228.3 541 182.7 541 137 541C91.3 541 45.7 541 22.8 541L0 541Z" fill="#fa7268"></path><path d="M0 366L22.8 371.8C45.7 377.7 91.3 389.3 137 388C182.7 386.7 228.3 372.3 274 371C319.7 369.7 365.3 381.3 411.2 391.3C457 401.3 503 409.7 548.8 404.8C594.7 400 640.3 382 686 377.7C731.7 373.3 777.3 382.7 823 383.2C868.7 383.7 914.3 375.3 937.2 371.2L960 367L960 541L937.2 541C914.3 541 868.7 541 823 541C777.3 541 731.7 541 686 541C640.3 541 594.7 541 548.8 541C503 541 457 541 411.2 541C365.3 541 319.7 541 274 541C228.3 541 182.7 541 137 541C91.3 541 45.7 541 22.8 541L0 541Z" fill="#ef5f67"></path><path d="M0 426L22.8 431.7C45.7 437.3 91.3 448.7 137 453.2C182.7 457.7 228.3 455.3 274 444.8C319.7 434.3 365.3 415.7 411.2 411.3C457 407 503 417 548.8 425.7C594.7 434.3 640.3 441.7 686 437.2C731.7 432.7 777.3 416.3 823 413.8C868.7 411.3 914.3 422.7 937.2 428.3L960 434L960 541L937.2 541C914.3 541 868.7 541 823 541C777.3 541 731.7 541 686 541C640.3 541 594.7 541 548.8 541C503 541 457 541 411.2 541C365.3 541 319.7 541 274 541C228.3 541 182.7 541 137 541C91.3 541 45.7 541 22.8 541L0 541Z" fill="#e34c67"></path><path d="M0 481L22.8 475.2C45.7 469.3 91.3 457.7 137 457.3C182.7 457 228.3 468 274 472C319.7 476 365.3 473 411.2 468.5C457 464 503 458 548.8 456.7C594.7 455.3 640.3 458.7 686 458.8C731.7 459 777.3 456 823 451.8C868.7 447.7 914.3 442.3 937.2 439.7L960 437L960 541L937.2 541C914.3 541 868.7 541 823 541C777.3 541 731.7 541 686 541C640.3 541 594.7 541 548.8 541C503 541 457 541 411.2 541C365.3 541 319.7 541 274 541C228.3 541 182.7 541 137 541C91.3 541 45.7 541 22.8 541L0 541Z" fill="#d53867"></path><path d="M0 514L22.8 508.7C45.7 503.3 91.3 492.7 137 487.5C182.7 482.3 228.3 482.7 274 485.3C319.7 488 365.3 493 411.2 496.2C457 499.3 503 500.7 548.8 502.8C594.7 505 640.3 508 686 507.8C731.7 507.7 777.3 504.3 823 498.8C868.7 493.3 914.3 485.7 937.2 481.8L960 478L960 541L937.2 541C914.3 541 868.7 541 823 541C777.3 541 731.7 541 686 541C640.3 541 594.7 541 548.8 541C503 541 457 541 411.2 541C365.3 541 319.7 541 274 541C228.3 541 182.7 541 137 541C91.3 541 45.7 541 22.8 541L0 541Z" fill="#c62368"></path></svg>