<svg id="visual" viewBox="0 0 960 540" width="960" height="540" xmlns="http://www.w3.org/2000/svg" xmlns:xlink="http://www.w3.org/1999/xlink" version="1.1"><path d="M0 120L22.8 116.3C45.7 112.7 91.3 105.3 137 104.3C182.7 103.3 228.3 108.7 274 124.8C319.7 141 365.3 168 411.2 166.3C457 164.7 503 134.3 548.8 122.7C594.7 111 640.3 118 686 124.2C731.7 130.3 777.3 135.7 823 133C868.7 130.3 914.3 119.7 937.2 114.3L960 109L960 0L937.2 0C914.3 0 868.7 0 823 0C777.3 0 731.7 0 686 0C640.3 0 594.7 0 548.8 0C503 0 457 0 411.2 0C365.3 0 319.7 0 274 0C228.3 0 182.7 0 137 0C91.3 0 45.7 0 22.8 0L0 0Z" fill="#dc3c34"></path><path d="M0 190L22.8 187.3C45.7 184.7 91.3 179.3 137 176.7C182.7 174 228.3 174 274 188.3C319.7 202.7 365.3 231.3 411.2 232.2C457 233 503 206 548.8 191.7C594.7 177.3 640.3 175.7 686 175.7C731.7 175.7 777.3 177.3 823 179.2C868.7 181 914.3 183 937.2 184L960 185L960 107L937.2 112.3C914.3 117.7 868.7 128.3 823 131C777.3 133.7 731.7 128.3 686 122.2C640.3 116 594.7 109 548.8 120.7C503 132.3 457 162.7 411.2 164.3C365.3 166 319.7 139 274 122.8C228.3 106.7 182.7 101.3 137 102.3C91.3 103.3 45.7 110.7 22.8 114.3L0 118Z" fill="#e24f2f"></path><path d="M0 271L22.8 264.7C45.7 258.3 91.3 245.7 137 243.8C182.7 242 228.3 251 274 264.5C319.7 278 365.3 296 411.2 288.8C457 281.7 503 249.3 548.8 236.8C594.7 224.3 640.3 231.7 686 241.5C731.7 251.3 777.3 263.7 823 262.7C868.7 261.7 914.3 247.3 937.2 240.2L960 233L960 183L937.2 182C914.3 181 868.7 179 823 177.2C777.3 175.3 731.7 173.7 686 173.7C640.3 173.7 594.7 175.3 548.8 189.7C503 204 457 231 411.2 230.2C365.3 229.3 319.7 200.7 274 186.3C228.3 172 182.7 172 137 174.7C91.3 177.3 45.7 182.7 22.8 185.3L0 188Z" fill="#e66129"></path><path d="M0 325L22.8 326.8C45.7 328.7 91.3 332.3 137 340.5C182.7 348.7 228.3 361.3 274 369.3C319.7 377.3 365.3 380.7 411.2 368C457 355.3 503 326.7 548.8 316C594.7 305.3 640.3 312.7 686 318C731.7 323.3 777.3 326.7 823 326.7C868.7 326.7 914.3 323.3 937.2 321.7L960 320L960 231L937.2 238.2C914.3 245.3 868.7 259.7 823 260.7C777.3 261.7 731.7 249.3 686 239.5C640.3 229.7 594.7 222.3 548.8 234.8C503 247.3 457 279.7 411.2 286.8C365.3 294 319.7 276 274 262.5C228.3 249 182.7 240 137 241.8C91.3 243.7 45.7 256.3 22.8 262.7L0 269Z" fill="#e97325"></path><path d="M0 503L22.8 498.5C45.7 494 91.3 485 137 482.3C182.7 479.7 228.3 483.3 274 488.8C319.7 494.3 365.3 501.7 411.2 503.5C457 505.3 503 501.7 548.8 498.8C594.7 496 640.3 494 686 492.2C731.7 490.3 777.3 488.7 823 489.7C868.7 490.7 914.3 494.3 937.2 496.2L960 498L960 318L937.2 319.7C914.3 321.3 868.7 324.7 823 324.7C777.3 324.7 731.7 321.3 686 316C640.3 310.7 594.7 303.3 548.8 314C503 324.7 457 353.3 411.2 366C365.3 378.7 319.7 375.3 274 367.3C228.3 359.3 182.7 346.7 137 338.5C91.3 330.3 45.7 326.7 22.8 324.8L0 323Z" fill="#eb8421"></path><path d="M0 541L22.8 541C45.7 541 91.3 541 137 541C182.7 541 228.3 541 274 541C319.7 541 365.3 541 411.2 541C457 541 503 541 548.8 541C594.7 541 640.3 541 686 541C731.7 541 777.3 541 823 541C868.7 541 914.3 541 937.2 541L960 541L960 496L937.2 494.2C914.3 492.3 868.7 488.7 823 487.7C777.3 486.7 731.7 488.3 686 490.2C640.3 492 594.7 494 548.8 496.8C503 499.7 457 503.3 411.2 501.5C365.3 499.7 319.7 492.3 274 486.8C228.3 481.3 182.7 477.7 137 480.3C91.3 483 45.7 492 22.8 496.5L0 501Z" fill="#ec9420"></path></svg>