<svg id="visual" viewBox="0 0 960 540" width="960" height="540" xmlns="http://www.w3.org/2000/svg" xmlns:xlink="http://www.w3.org/1999/xlink" version="1.1"><rect x="0" y="0" width="960" height="540" fill="#000000"></rect><path d="M0 425L22.8 424.7C45.7 424.3 91.3 423.7 137 411.8C182.7 400 228.3 377 274 379.8C319.7 382.7 365.3 411.3 411.2 418.2C457 425 503 410 548.8 413.3C594.7 416.7 640.3 438.3 686 451C731.7 463.7 777.3 467.3 823 455.7C868.7 444 914.3 417 937.2 403.5L960 390L960 541L937.2 541C914.3 541 868.7 541 823 541C777.3 541 731.7 541 686 541C640.3 541 594.7 541 548.8 541C503 541 457 541 411.2 541C365.3 541 319.7 541 274 541C228.3 541 182.7 541 137 541C91.3 541 45.7 541 22.8 541L0 541Z" fill="#DC3C34" stroke-linecap="round" stroke-linejoin="miter"></path></svg>